<svg width="1323" height="417" viewBox="0 0 1323 417" fill="none" xmlns="http://www.w3.org/2000/svg">
<g filter="url(#filter0_b)">
<path d="M208.75 0C87.7084 0 0 98.75 0 208.333C0 243.333 10.2083 279.375 28.125 312.292C31.4583 317.708 31.875 324.583 29.5833 331.042L15.625 377.708C12.5 388.958 22.0833 397.292 32.7083 393.958L74.7917 381.458C86.25 377.708 95.2084 382.5 105.854 388.958C136.271 406.875 174.167 416.042 208.333 416.042C311.667 416.042 416.667 336.25 416.667 207.708C416.667 96.875 327.083 0 208.75 0Z" fill="url(#paint0_linear)"/>
</g>
<path fill-rule="evenodd" clip-rule="evenodd" d="M123.16 114V114.177C113.668 114.177 105.982 120.375 105.982 127.99C105.982 135.604 113.668 141.802 123.16 141.802H188.988C198.48 141.802 206.188 135.604 206.188 127.795C206.188 120.198 198.48 114 188.988 114H123.16ZM295.822 221.844H123.16C113.668 221.844 105.982 215.646 105.982 208.031C105.982 200.417 113.668 194.201 123.16 194.201H295.822C305.292 194.201 313 200.417 313 208.031C313 215.646 305.292 221.844 295.822 221.844ZM295.822 302.771H123.16C116.553 303.479 110.166 300.823 106.643 296.396C103.119 291.792 103.119 285.948 106.643 281.521C110.166 276.917 116.553 274.438 123.16 274.969H295.822C304.609 275.677 311.238 281.698 311.238 288.959C311.238 296.024 304.609 302.063 295.822 302.771Z" fill="white"/>
<path d="M531.125 283.809C567.258 283.809 593.43 261.055 594.602 228.828H560.227C558.176 243.965 546.652 253.926 531.223 253.926C511.496 253.926 499.484 236.934 499.484 209.395C499.484 181.953 511.496 165.156 531.125 165.156C546.555 165.156 558.176 175.508 560.031 190.84H594.504C593.43 158.906 566.574 135.273 531.125 135.273C488.84 135.273 462.961 163.496 462.961 209.492C462.961 255.488 488.938 283.809 531.125 283.809ZM618.43 280H652.902V218.379C652.902 205.879 659.934 197.383 671.75 197.383C683.176 197.383 689.328 204.512 689.328 217.988V280H723.801V210.176C723.801 183.809 710.227 169.258 686.594 169.258C670.969 169.258 658.859 176.875 654.074 189.375H652.219V130.586H618.43V280ZM792.062 257.539C783.371 257.539 777.609 253.242 777.609 246.309C777.609 239.766 782.98 235.762 793.234 234.98L811.496 233.809V240.938C811.496 250.312 803 257.539 792.062 257.539ZM779.465 281.66C793.234 281.66 805.148 275.801 810.031 266.523H811.887V280H845.48V205.879C845.48 182.441 828.391 168.77 798.41 168.77C769.016 168.77 749.777 181.855 748.215 202.949H779.27C781.516 197.188 787.375 194.16 796.457 194.16C806.027 194.16 811.496 198.555 811.496 205.879V214.375L787.766 215.742C759.738 217.402 744.309 228.926 744.309 248.75C744.309 268.672 758.566 281.66 779.465 281.66ZM880.344 146.406V172.773H863.645V198.457H880.344V250.215C880.344 271.504 891.574 280.195 920.188 280.195C926.73 280.195 933.078 279.609 936.691 278.828V254.219C934.152 254.512 932.004 254.707 928 254.707C919.016 254.707 914.816 250.703 914.816 242.5V198.457H936.691V172.773H914.816V146.406H880.344ZM1058.27 250.41H998.41V139.082H962.57V280H1058.27V250.41ZM1126.44 282.539C1161.3 282.539 1181.81 261.445 1181.81 225.605C1181.81 190.254 1160.81 168.77 1126.44 168.77C1092.26 168.77 1071.07 190.449 1071.07 225.605C1071.07 261.348 1091.67 282.539 1126.44 282.539ZM1126.44 256.172C1113.74 256.172 1106.52 245.039 1106.52 225.605C1106.52 206.66 1113.94 195.137 1126.44 195.137C1138.94 195.137 1146.36 206.66 1146.36 225.605C1146.36 244.941 1139.13 256.172 1126.44 256.172ZM1253.88 253.047C1240.7 253.047 1233.08 242.305 1233.08 224.922C1233.08 207.539 1240.79 196.797 1253.88 196.797C1267.06 196.797 1274.97 207.539 1274.97 225.02C1274.97 242.402 1267.16 253.047 1253.88 253.047ZM1252.9 320.918C1287.47 320.918 1309.35 304.609 1309.35 278.73V171.309H1275.66V188.789H1273.8C1268.33 176.875 1256.12 169.648 1241.67 169.648C1214.23 169.648 1197.63 190.84 1197.63 225.02C1197.63 257.734 1214.23 278.438 1240.89 278.438C1256.32 278.438 1267.36 272.578 1272.92 261.348H1274.78V280.977C1274.78 291.719 1267.16 297.969 1253.88 297.969C1243.04 297.969 1235.71 294.258 1234.45 288.398H1200.85C1202.22 307.93 1222.63 320.918 1252.9 320.918Z" fill="url(#paint1_linear)"/>
<defs>
<filter id="filter0_b" x="-60" y="-60" width="536.667" height="536.042" filterUnits="userSpaceOnUse" color-interpolation-filters="sRGB">
<feFlood flood-opacity="0" result="BackgroundImageFix"/>
<feGaussianBlur in="BackgroundImage" stdDeviation="30"/>
<feComposite in2="SourceAlpha" operator="in" result="effect1_backgroundBlur"/>
<feBlend mode="normal" in="SourceGraphic" in2="effect1_backgroundBlur" result="shape"/>
</filter>
<linearGradient id="paint0_linear" x1="288.5" y1="-223" x2="95.5" y2="554" gradientUnits="userSpaceOnUse">
<stop stop-color="#805AD5"/>
<stop offset="1" stop-color="#3182CE"/>
</linearGradient>
<linearGradient id="paint1_linear" x1="888" y1="89" x2="888" y2="328" gradientUnits="userSpaceOnUse">
<stop stop-color="#3182CE"/>
<stop offset="1" stop-color="#2C5282"/>
</linearGradient>
</defs>
</svg>
